<svg width="26" height="27" viewBox="0 0 26 27" fill="none" xmlns="http://www.w3.org/2000/svg">
<path fill-rule="evenodd" clip-rule="evenodd" d="M20.6268 21.4975C17.3214 24.8033 12.4268 25.5175 8.42144 23.6651C7.83014 23.427 7.34537 23.2346 6.8845 23.2346C5.60081 23.2422 4.003 24.4869 3.17257 23.6575C2.34214 22.827 3.58779 21.2279 3.58779 19.9365C3.58779 19.4755 3.403 18.9994 3.16496 18.407C1.31171 14.4022 2.02693 9.50604 5.33234 6.20135C9.55187 1.98026 16.4073 1.98026 20.6268 6.20026C24.8539 10.4279 24.8463 17.2775 20.6268 21.4975Z" stroke="#9FB4CD" stroke-width="1.94681" stroke-linecap="round" stroke-linejoin="round"/>
<path d="M17.2394 14.2977H17.2491" stroke="#9FB4CD" stroke-width="2.59574" stroke-linecap="round" stroke-linejoin="round"/>
<path d="M12.9035 14.2977H12.9132" stroke="#9FB4CD" stroke-width="2.59574" stroke-linecap="round" stroke-linejoin="round"/>
<path d="M8.56741 14.2977H8.57714" stroke="#9FB4CD" stroke-width="2.59574" stroke-linecap="round" stroke-linejoin="round"/>
</svg>
