<svg width="20" height="20" viewBox="0 0 20 20" fill="none" xmlns="http://www.w3.org/2000/svg">
<path d="M9.85417 1.34351C4.96415 1.34351 1 5.30765 1 10.1977C1 15.0877 4.96415 19.0518 9.85417 19.0518C14.4558 19.0518 18.2371 15.5417 18.6675 11.0526C18.6876 10.8437 18.5802 10.6432 18.3953 10.5439C18.2103 10.4448 17.9839 10.4662 17.8209 10.5985C16.9254 11.3252 15.7851 11.7602 14.5417 11.7602C11.6652 11.7602 9.33333 9.4283 9.33333 6.55184C9.33333 4.8434 10.1554 3.32708 11.4277 2.3765C11.5959 2.25081 11.6722 2.03638 11.6211 1.83268C11.5701 1.62899 11.4018 1.47586 11.1942 1.44432C10.7569 1.3779 10.3094 1.34351 9.85417 1.34351Z" stroke="#9FB4CD"/>
</svg>
