<svg width="24" height="24" viewBox="0 0 24 24" fill="none" xmlns="http://www.w3.org/2000/svg">
<path d="M12.4997 3.004C11.6092 2.99029 10.7185 3.01265 9.82973 3.071C5.64573 3.349 2.31373 6.728 2.03973 10.971C1.98676 11.8102 1.98676 12.6518 2.03973 13.491C2.13973 15.036 2.82273 16.467 3.62773 17.675C4.09473 18.52 3.78673 19.575 3.29973 20.498C2.94973 21.163 2.77373 21.495 2.91473 21.735C3.05473 21.975 3.36973 21.983 3.99873 21.998C5.24373 22.028 6.08273 21.676 6.74873 21.185C7.12573 20.906 7.31473 20.767 7.44473 20.751C7.57473 20.735 7.83173 20.841 8.34373 21.051C8.80373 21.241 9.33873 21.358 9.82873 21.391C11.2537 21.485 12.7427 21.485 14.1707 21.391C18.3537 21.113 21.6857 17.733 21.9597 13.491C22.0017 12.836 22.0107 12.163 21.9867 11.5M8.49973 15H15.4997M8.49973 10H11.9997M14.9997 5.5H21.9997M18.4997 2V9" stroke="black" stroke-width="1.5" stroke-linecap="round" stroke-linejoin="round"/>
</svg>
