<svg width="23" height="23" viewBox="0 0 23 23" fill="none" xmlns="http://www.w3.org/2000/svg">
<path d="M11.1979 0C11.6293 0 11.9791 0.349781 11.9791 0.78125V1.82292C11.9791 2.25439 11.6293 2.60417 11.1979 2.60417C10.7664 2.60417 10.4166 2.25439 10.4166 1.82292V0.78125C10.4166 0.349781 10.7664 0 11.1979 0Z" fill="#9FB4CD"/>
<path d="M11.198 5.20837C7.89 5.20837 5.20837 7.89 5.20837 11.198C5.20837 14.5059 7.89 17.1875 11.198 17.1875C14.5059 17.1875 17.1875 14.5059 17.1875 11.198C17.1875 7.89 14.5059 5.20837 11.198 5.20837Z" stroke="#9FB4CD"/>
<path d="M4.38471 3.27985C4.0796 2.97475 3.58495 2.97475 3.27985 3.27985C2.97475 3.58495 2.97475 4.07961 3.27985 4.38471L4.01642 5.12127C4.32152 5.42638 4.81618 5.42638 5.12127 5.12127C5.42637 4.81618 5.42637 4.32151 5.12127 4.01642L4.38471 3.27985Z" fill="#9FB4CD"/>
<path d="M22.3958 11.1979C22.3958 11.6293 22.046 11.9791 21.6145 11.9791H20.5729C20.1414 11.9791 19.7916 11.6293 19.7916 11.1979C19.7916 10.7664 20.1414 10.4166 20.5729 10.4166H21.6145C22.046 10.4166 22.3958 10.7664 22.3958 11.1979Z" fill="#9FB4CD"/>
<path d="M19.1161 4.38471C19.4212 4.0796 19.4212 3.58495 19.1161 3.27985C18.811 2.97475 18.3163 2.97475 18.0112 3.27985L17.2746 4.01642C16.9695 4.32152 16.9695 4.81618 17.2746 5.12127C17.5797 5.42637 18.0744 5.42637 18.3795 5.12127L19.1161 4.38471Z" fill="#9FB4CD"/>
<path d="M11.1979 19.7916C11.6293 19.7916 11.9791 20.1414 11.9791 20.5729V21.6145C11.9791 22.046 11.6293 22.3958 11.1979 22.3958C10.7664 22.3958 10.4166 22.046 10.4166 21.6145V20.5729C10.4166 20.1414 10.7664 19.7916 11.1979 19.7916Z" fill="#9FB4CD"/>
<path d="M18.3795 17.2746C18.0744 16.9695 17.5798 16.9695 17.2747 17.2746C16.9696 17.5797 16.9696 18.0744 17.2747 18.3795L18.0113 19.1161C18.3164 19.4212 18.811 19.4212 19.1161 19.1161C19.4212 18.811 19.4212 18.3163 19.1161 18.0112L18.3795 17.2746Z" fill="#9FB4CD"/>
<path d="M2.60417 11.1979C2.60417 11.6293 2.25439 11.9791 1.82292 11.9791H0.78125C0.349781 11.9791 0 11.6293 0 11.1979C0 10.7664 0.349781 10.4166 0.78125 10.4166H1.82292C2.25439 10.4166 2.60417 10.7664 2.60417 11.1979Z" fill="#9FB4CD"/>
<path d="M5.12115 18.3795C5.42624 18.0744 5.42624 17.5797 5.12115 17.2746C4.81605 16.9695 4.32139 16.9695 4.0163 17.2746L3.27972 18.0112C2.97463 18.3163 2.97463 18.811 3.27972 19.1161C3.58482 19.4212 4.07948 19.4212 4.38458 19.1161L5.12115 18.3795Z" fill="#9FB4CD"/>
</svg>
