<svg width="26" height="27" viewBox="0 0 26 27" fill="none" xmlns="http://www.w3.org/2000/svg">
<path fill-rule="evenodd" clip-rule="evenodd" d="M10.3738 17.3618C14.3637 17.3618 17.7738 17.9664 17.7738 20.3815C17.7738 22.7967 14.3864 23.4186 10.3738 23.4186C6.38283 23.4186 2.97375 22.8194 2.97375 20.4032C2.97375 17.987 6.36012 17.3618 10.3738 17.3618Z" stroke="#9FB4CD" stroke-width="1.94681" stroke-linecap="round" stroke-linejoin="round"/>
<path fill-rule="evenodd" clip-rule="evenodd" d="M10.3737 13.915C7.75419 13.915 5.63 11.7919 5.63 9.17233C5.63 6.55279 7.75419 4.42969 10.3737 4.42969C12.9922 4.42969 15.1164 6.55279 15.1164 9.17233C15.1261 11.7821 13.0171 13.9052 10.4073 13.915H10.3737Z" stroke="#9FB4CD" stroke-width="1.94681" stroke-linecap="round" stroke-linejoin="round"/>
<path d="M17.8275 12.6839C19.5591 12.4405 20.8927 10.9545 20.8959 9.15584C20.8959 7.38316 19.6034 5.91224 17.9086 5.63428" stroke="#9FB4CD" stroke-width="1.94681" stroke-linecap="round" stroke-linejoin="round"/>
<path d="M20.1121 16.8485C21.7896 17.0984 22.9609 17.6867 22.9609 18.8981C22.9609 19.7319 22.4093 20.2727 21.5181 20.6113" stroke="#9FB4CD" stroke-width="1.94681" stroke-linecap="round" stroke-linejoin="round"/>
</svg>
