<svg width="34" height="34" viewBox="0 0 34 34" fill="none" xmlns="http://www.w3.org/2000/svg">
<path d="M14.7078 7.96689L9.6515 13.0232L7.42983 10.7222L17.1445 1.00752L26.8592 10.7222L24.6375 13.0232L19.5812 7.96689L18.7276 7.11334V8.32045V24.7979H15.5614V8.32045V7.11334L14.7078 7.96689ZM0.979492 29.4638V23.7148H4.14574V29.4642V29.9642H4.64574H29.6432H30.1432V29.4642V23.7148H33.3095V29.4642C33.3095 30.4764 32.9552 31.3308 32.2328 32.0544C31.511 32.7775 30.6571 33.1316 29.6438 33.1304H29.6432H4.64574C3.63356 33.1304 2.78001 32.7762 2.05792 32.0541C1.33589 31.332 0.980787 30.4777 0.979492 29.4638Z" fill="#A81300" stroke="#A81300"/>
</svg>
