<svg width="26" height="27" viewBox="0 0 26 27" fill="none" xmlns="http://www.w3.org/2000/svg">
<path d="M12.9734 18.8667V16.1228" stroke="#9FB4CD" stroke-width="1.94681" stroke-linecap="round" stroke-linejoin="round"/>
<path fill-rule="evenodd" clip-rule="evenodd" d="M19.6734 6.59473C21.5012 6.59473 22.9722 8.07646 22.9722 9.9043V13.6249C20.3115 15.1823 16.7965 16.1233 12.9677 16.1233C9.13901 16.1233 5.63476 15.1823 2.97412 13.6249V9.89349C2.97412 8.06565 4.45586 6.59473 6.2837 6.59473H19.6734Z" stroke="#9FB4CD" stroke-width="1.94681" stroke-linecap="round" stroke-linejoin="round"/>
<path d="M16.7589 6.59005V6.1942C16.7589 4.8747 15.6882 3.80396 14.3687 3.80396H11.5782C10.2587 3.80396 9.18799 4.8747 9.18799 6.1942V6.59005" stroke="#9FB4CD" stroke-width="1.94681" stroke-linecap="round" stroke-linejoin="round"/>
<path d="M3.00073 17.5757L3.20515 20.2893C3.34359 22.1182 4.86751 23.5318 6.70075 23.5318H19.2458C21.079 23.5318 22.6029 22.1182 22.7414 20.2893L22.9458 17.5757" stroke="#9FB4CD" stroke-width="1.94681" stroke-linecap="round" stroke-linejoin="round"/>
</svg>
